<svg xmlns="http://www.w3.org/2000/svg" viewBox="0 0 210 297">
  <path d="M63 59c0 .8-1 1.4-1.6 1.4-.6 0-1.5-.6-1.6-1.4-.1-1.6 1.2-.5 1.6-.5.4 0 1.8-1 1.6.5" fill="#3d3941"/>
  <path d="M61.2 39.1c-7 0-13 6.4-11.6 13.4.6 3.3 1.5 8 5.7 9.5 1.1.4 2.5.5 3.8.5.4 0 .3-.1 0-.2a9 9 0 01-6.8-8.7v-2.7c0-.3.1-.5.4-.5h2c1 0 1-4.1 1.5-4.1.6 0 1 4.1 2 4.1h11.6c.3 0 .4.1.4.5v2.7a9 9 0 01-6.8 8.7c-.4 0-.4.2 0 .2 1.4 0 3.2-.2 4.1-.6 4.8-2.2 4.8-6.1 5.4-9.4 1.3-7-4.6-13.4-11.7-13.4" fill="#3d3941"/>
  <path d="M61.2 38c2 0 3.8.4 5.6 1.2.1 0 .4.2.6 0 .3-.7.4-1 .4-1.7 0-2.7-3-5-6.6-5-3.6 0-6.5 2.3-6.5 5 0 .7 0 1.1.4 1.7.2.3.4 0 .6 0 1.7-.8 3.6-1.2 5.5-1.2M56.4 33c.2 0 .2-.3 0-.4l-2-1.3a.4.4 0 00-.6.1l-.2.3c0 .2 0 .4.2.6l1.6 1c.2.2.4.2.6 0l.4-.2M66.8 33.6c.2.1.5.2.7 0l2.4-1.3c.2-.1.3-.4.2-.6l-.1-.3a.4.4 0 00-.6-.1l-2.9 1.6c-.2.1-.2.3 0 .4l.3.3M58.2 53.5s-1.1-1.8-3.2-.7c-.2 0-.5.1-.8-.3a.3.3 0 00-.5.3c.4.7 1 .6 1.5.4l.4-.1-.1.5a.9.9 0 101.5-.4c.5.2.7.5.8.6a.3.3 0 00.4-.3M64.5 53.5s1-1.8 3.2-.7c.2 0 .5.1.8-.3a.3.3 0 01.4.3 1 1 0 01-1.5.4l-.3-.1.1.5a.9.9 0 11-1.6-.4 2 2 0 00-.7.6.3.3 0 01-.4-.3" fill="#3d3941"/>
</svg>
