<?xml version="1.0" encoding="UTF-8" standalone="no"?>
<svg
   xmlns:dc="http://purl.org/dc/elements/1.1/"
   xmlns:cc="http://creativecommons.org/ns#"
   xmlns:rdf="http://www.w3.org/1999/02/22-rdf-syntax-ns#"
   xmlns:svg="http://www.w3.org/2000/svg"
   xmlns="http://www.w3.org/2000/svg"
   xmlns:sodipodi="http://sodipodi.sourceforge.net/DTD/sodipodi-0.dtd"
   xmlns:inkscape="http://www.inkscape.org/namespaces/inkscape"
   sodipodi:docname="drawing.svg"
   inkscape:version="1.0 (6e3e5246a0, 2020-05-07)"
   id="svg145"
   version="1.1"
   viewBox="0 0 210 297"
   height="297mm"
   width="210mm">
  <defs
     id="defs139" />
  <sodipodi:namedview
     inkscape:window-maximized="0"
     inkscape:window-y="62"
     inkscape:window-x="28"
     inkscape:window-height="895"
     inkscape:window-width="1563"
     showgrid="false"
     inkscape:document-rotation="0"
     inkscape:current-layer="layer1"
     inkscape:document-units="mm"
     inkscape:cy="762.3582"
     inkscape:cx="619.52093"
     inkscape:zoom="7.9195959"
     inkscape:pageshadow="2"
     inkscape:pageopacity="0.0"
     borderopacity="1.0"
     bordercolor="#666666"
     pagecolor="#ffffff"
     id="base" />
  <metadata
     id="metadata142">
    <rdf:RDF>
      <cc:Work
         rdf:about="">
        <dc:format>image/svg+xml</dc:format>
        <dc:type
           rdf:resource="http://purl.org/dc/dcmitype/StillImage" />
        <dc:title></dc:title>
      </cc:Work>
    </rdf:RDF>
  </metadata>
  <g
     id="layer1"
     inkscape:groupmode="layer"
     inkscape:label="Layer 1">
    <path
       style="stroke-width:0.264583"
       d="m 159.97211,205.05314 c 0,0.21167 -0.26458,0.37042 -0.42333,0.37042 -0.15875,0 -0.39688,-0.15875 -0.42334,-0.37042 -0.0265,-0.42333 0.3175,-0.13229 0.42334,-0.13229 0.10583,0 0.47625,-0.26458 0.42333,0.13229"
       fill="#3d3941"
       id="path76" />
    <path
       style="stroke-width:0.264583"
       d="m 159.49586,199.78794 c -1.85208,0 -3.43958,1.69333 -3.06917,3.54541 0.15875,0.87313 0.39688,2.11667 1.50813,2.51354 0.29104,0.10584 0.66146,0.1323 1.00541,0.1323 0.10584,0 0.0794,-0.0265 0,-0.0529 a 2.38125,2.38125 0 0 1 -1.79916,-2.30188 v -0.71437 c 0,-0.0794 0.0265,-0.13229 0.10583,-0.13229 h 0.52917 c 0.26458,0 0.26458,-1.08479 0.39687,-1.08479 0.15875,0 0.26459,1.08479 0.52917,1.08479 h 3.06917 c 0.0794,0 0.10583,0.0265 0.10583,0.13229 v 0.71437 a 2.38125,2.38125 0 0 1 -1.79917,2.30188 c -0.10583,0 -0.10583,0.0529 0,0.0529 0.37042,0 0.84667,-0.0529 1.08479,-0.15875 1.27,-0.58209 1.27,-1.61396 1.42875,-2.48709 0.34396,-1.85208 -1.21708,-3.54541 -3.09562,-3.54541"
       fill="#3d3941"
       id="path78" />
    <path
       style="stroke-width:0.264583"
       d="m 159.49586,199.49689 c 0.52917,0 1.00542,0.10584 1.48167,0.3175 0.0265,0 0.10583,0.0529 0.15875,0 0.0794,-0.1852 0.10583,-0.26458 0.10583,-0.44979 0,-0.71437 -0.79375,-1.32291 -1.74625,-1.32291 -0.9525,0 -1.71979,0.60854 -1.71979,1.32291 0,0.18521 0,0.29104 0.10583,0.44979 0.0529,0.0794 0.10583,0 0.15875,0 0.44979,-0.21166 0.9525,-0.3175 1.45521,-0.3175 m -1.27,-1.32291 c 0.0529,0 0.0529,-0.0794 0,-0.10584 l -0.52917,-0.34395 a 0.10583333,0.10583333 0 0 0 -0.15875,0.0265 l -0.0529,0.0794 c 0,0.0529 0,0.10583 0.0529,0.15875 l 0.42334,0.26458 c 0.0529,0.0529 0.10583,0.0529 0.15875,0 l 0.10583,-0.0529 m 2.75167,0.13229 c 0.0529,0.0265 0.13229,0.0529 0.1852,0 l 0.635,-0.34396 c 0.0529,-0.0265 0.0794,-0.10583 0.0529,-0.15875 l -0.0265,-0.0794 a 0.10583333,0.10583333 0 0 0 -0.15875,-0.0265 l -0.76729,0.42333 c -0.0529,0.0265 -0.0529,0.0794 0,0.10583 l 0.0794,0.0794 m -2.27542,5.26521 c 0,0 -0.29104,-0.47625 -0.84667,-0.18521 -0.0529,0 -0.13229,0.0264 -0.21166,-0.0794 a 0.079375,0.079375 0 0 0 -0.1323,0.0794 c 0.10584,0.18521 0.26459,0.15875 0.39688,0.10583 l 0.10583,-0.0265 -0.0265,0.13229 a 0.238125,0.238125 0 1 0 0.39688,-0.10583 c 0.13229,0.0529 0.18521,0.13229 0.21167,0.15875 a 0.079375,0.079375 0 0 0 0.10583,-0.0794 m 1.66687,0 c 0,0 0.26459,-0.47625 0.84667,-0.18521 0.0529,0 0.13229,0.0264 0.21167,-0.0794 a 0.079375,0.079375 0 0 1 0.10583,0.0794 0.26458333,0.26458333 0 0 1 -0.39687,0.10583 l -0.0794,-0.0265 0.0265,0.13229 a 0.238125,0.238125 0 1 1 -0.42333,-0.10583 0.52916667,0.52916667 0 0 0 -0.18521,0.15875 0.079375,0.079375 0 0 1 -0.10584,-0.0794"
       fill="#3d3941"
       id="path80" />
    <rect
       y="197.20621"
       x="155.22285"
       height="9.536809"
       width="9.1231184"
       id="rect157"
       style="fill:#0000ff;fill-rule:evenodd;stroke-width:0.264583" />
  </g>
</svg>
