<svg id="Layer_1" version="1.1" viewBox="0 0 1000 1000" xml:space="preserve" xmlns="http://www.w3.org/2000/svg">
  <!-- <style>
    .st1{fill:#fff}
  </style> -->
  <linearGradient gradientUnits="userSpaceOnUse" id="SVGID_1_" x1="0" x2="1000" y1="1000" y2="0">
    <stop offset="0" stop-color="#ffd521"/>
    <stop offset=".1" stop-color="#ffd020"/>
    <stop offset=".1" stop-color="#fec01e"/>
    <stop offset=".2" stop-color="#fca71b"/>
    <stop offset=".3" stop-color="#fa8316"/>
    <stop offset=".4" stop-color="#f85510"/>
    <stop offset=".5" stop-color="#f51e09"/>
    <stop offset=".5" stop-color="#f30005"/>
    <stop offset=".5" stop-color="#f20007"/>
    <stop offset=".6" stop-color="#e1003b"/>
    <stop offset=".7" stop-color="#d30067"/>
    <stop offset=".8" stop-color="#c70088"/>
    <stop offset=".9" stop-color="#bf00a0"/>
    <stop offset=".9" stop-color="#bb00af"/>
    <stop offset="1" stop-color="#b900b4"/>
  </linearGradient>
  <path fill="url(#SVGID_1_)" d="M0 0h1000v1000H0z"/>
  <path class="st1" d="M500 220.2c91.1 0 101.9.3 137.9 2 33.3 1.5 51.4 7.1 63.4 11.8a106 106 0 0139.2 25.5 106 106 0 0125.5 39.2c4.7 12 10.2 30.1 11.8 63.4 1.6 36 2 46.8 2 137.9s-.3 101.9-2 137.9a187.3 187.3 0 01-11.8 63.4 106 106 0 01-25.5 39.2 106 106 0 01-39.2 25.5c-12 4.7-30.1 10.2-63.4 11.8-36 1.6-46.8 2-137.9 2s-101.9-.3-137.9-2a187.3 187.3 0 01-63.4-11.8 106 106 0 01-39.2-25.5 106 106 0 01-25.5-39.2c-4.7-12-10.2-30.1-11.8-63.4-1.6-36-2-46.8-2-137.9s.3-101.9 2-137.9c1.5-33.3 7.1-51.4 11.8-63.4a106 106 0 0125.5-39.2 106 106 0 0139.2-25.5c12-4.7 30.1-10.2 63.4-11.8 36-1.7 46.8-2 137.9-2m0-61.5c-92.7 0-104.3.4-140.7 2.1a250.9 250.9 0 00-82.9 15.9A164.8 164.8 0 00216 216a168 168 0 00-39.4 60.5 252.4 252.4 0 00-15.9 82.9c-1.7 36.4-2.1 48-2.1 140.7 0 92.7.4 104.3 2.1 140.7 1.7 36.3 7.4 61.1 15.9 82.9A166.8 166.8 0 00216 784c19 19 38 30.6 60.5 39.4a252.4 252.4 0 0082.9 15.9c36.4 1.7 48 2.1 140.7 2.1s104.3-.4 140.7-2.1c36.3-1.7 61.1-7.4 82.9-15.9A166.8 166.8 0 00784 784c19-19 30.6-38 39.4-60.5a252.4 252.4 0 0015.9-82.9c1.7-36.4 2.1-48 2.1-140.7s-.4-104.3-2.1-140.7a250.9 250.9 0 00-15.9-82.9A166.8 166.8 0 00784 216a168 168 0 00-60.5-39.4 252.4 252.4 0 00-82.9-15.9c-36.3-1.6-47.9-2-140.6-2z"/>
  <path class="st1" d="M500 324.7a175.3 175.3 0 100 350.6 175.3 175.3 0 000-350.6zm0 289.1a113.8 113.8 0 110-227.6 113.8 113.8 0 010 227.6z"/>
  <circle class="st1" cx="682.2" cy="317.8" r="41"/>
</svg>