<svg xmlns="http://www.w3.org/2000/svg" viewBox="0 0 412.4 412.4">
  <path d="M412.4 212.3a206.2 206.2 0 10-296.2 179.5c3.9 1.9 8.5-1.1 8.3-5.5a155 155 0 012.6-38.8l19.6-83.2a102 102 0 001-42.3c-.8-4.6-1.5-10-1.5-16 0-30.5 17.7-53.3 39.7-53.3 18.7 0 27.7 14 27.7 30.9 0 18.8-12 47-18.1 73-5.2 21.8 11 39.6 32.4 39.6 39 0 69-41 69-100.4 0-52.5-37.8-89.2-91.6-89.2-62.4 0-99 46.8-99 95.2 0 18.8 7.3 39 16.3 50 1.8 2.2 2 4 1.5 6.3l-6 24.8c-1 4-3.2 4.9-7.4 3-27.3-12.8-44.5-52.8-44.5-85 0-69.1 50.3-132.6 144.9-132.6 76 0 135.1 54.2 135.1 126.6 0 75.5-47.6 136.3-113.7 136.3a64.5 64.5 0 01-44-16.8c-3-3-8-1.6-9.1 2.5l-10.8 41.3c-3.3 12.4-10 26.9-17 39.5a5.8 5.8 0 003.8 8.4c16.9 4.3 34.5 6.5 52.8 6.3 108.2-1 201-92 204.2-200.1z" fill="#9f1121"/>
</svg>